<?xml version="1.0" encoding="iso-8859-1"?>
<!DOCTYPE svg PUBLIC "-//W3C//DTD SVG 1.1//EN" "http://www.w3.org/Graphics/SVG/1.1/DTD/svg11.dtd">
<svg 
 version="1.1" xmlns="http://www.w3.org/2000/svg" xmlns:xlink="http://www.w3.org/1999/xlink" x="0px" y="0px" width="512px"
	 height="512px" viewBox="0 0 512 512" enable-background="new 0 0 512 512" xml:space="preserve"
><g id="5151e0c8492e5103c096af88a5290832"><g></g><g fill="#c62828"><path display="inline" d="M468.113,450.667H43.887c-23.922,0-43.387-19.405-43.387-43.259V104.591
		c0-23.853,19.464-43.258,43.387-43.258h424.227c23.92,0,43.387,19.405,43.387,43.258v302.817
		C511.5,431.262,492.033,450.667,468.113,450.667z M43.887,90.172c-7.975,0-14.462,6.469-14.462,14.419v302.817
		c0,7.951,6.487,14.42,14.462,14.42h424.227c7.975,0,14.462-6.469,14.462-14.42V104.591c0-7.95-6.487-14.419-14.462-14.419H43.887z
		 M434.954,329.917L348.6,243.823l84.53-60.206c6.501-4.624,8.008-13.635,3.364-20.112c-4.647-6.479-13.678-7.979-20.175-3.351
		L256,274.331L95.68,160.154c-6.501-4.629-15.531-3.128-20.177,3.351c-4.641,6.478-3.135,15.488,3.365,20.112l84.532,60.206
		l-86.353,86.094c-5.648,5.632-5.648,14.767,0,20.389c2.823,2.823,6.525,4.23,10.225,4.23c3.7,0,7.405-1.407,10.225-4.23
		l89.763-89.491L256,309.771l68.741-48.956l89.758,89.491c2.823,2.823,6.53,4.23,10.228,4.23c3.698,0,7.405-1.407,10.228-4.23
		C440.601,344.684,440.601,335.549,434.954,329.917z"></path></g></g></svg>